<svg viewBox="0 0 300 358" fill="none" xmlns="http://www.w3.org/2000/svg">
<g filter="url(#filter0_d_144_573)">
<path d="M47.6244 268.275C39.4128 263.088 31.5973 266.114 28.716 268.275L30.877 265.303C33.173 264.492 39.2237 262.925 45.0583 263.142C52.3515 263.412 56.9436 268.275 63.2914 270.031C68.3697 271.436 71.5301 269.445 72.4755 268.275C74.1862 266.339 79.2015 262.223 85.5763 261.25C91.9512 260.278 98.5871 264.177 101.108 266.249H112.588C116.01 266.519 123.825 266.465 127.715 264.087C133.658 263.439 140.096 252.11 142.572 246.526L148.244 233.829C149.28 228.245 151.594 216.781 152.566 215.592C153.539 214.404 153.422 205.731 153.241 201.544C153.602 198.077 153.376 189.846 149.595 184.658C149.19 177.769 141.761 174.257 138.79 170.069C136.413 166.719 123.663 164.171 117.586 163.315L105.7 158.858C102.729 158.317 96.111 157.48 93.4098 158.452C90.8437 157.642 85.4413 162.235 83.9556 161.829C89.358 156.696 99.7576 154.805 101.513 155.48C113.534 159.263 120.017 158.047 125.284 159.263C128.417 158.831 136.944 161.244 140.816 162.505L118.126 141.162C115.109 138.46 108.401 132.976 105.7 132.651C93.1667 127.788 78.8683 130.895 73.2859 133.057C68.1085 134.543 56.5114 137.623 51.5412 138.055C45.3284 138.595 39.3858 135.218 35.0638 134.002C30.7419 132.787 24.6642 133.867 20.8825 135.218C18.0733 134.57 8.45698 140.171 4 143.053C5.03546 142.017 8.484 139.081 13.9944 135.623C20.8825 131.301 28.4459 131.706 30.7419 130.76C33.0379 129.815 38.7105 131.841 43.5726 133.057C48.4348 134.272 53.5671 134.002 56.2683 132.651C58.1051 132.76 63.4265 130.625 65.8575 129.545L75.852 125.627L80.8492 124.411L87.6022 123.061L100.568 122.655L95.3007 112.929L91.1138 100.232C89.7182 95.3235 85.9005 84.8051 81.7946 81.9954C76.6623 78.4832 71.1249 81.455 69.9093 80.7796C68.6938 80.1042 51.4061 87.8039 49.1101 89.8302C46.8141 91.8564 38.0352 92.1266 37.0897 92.6669C36.3334 93.0992 29.9315 93.1172 26.8252 93.0722H22.9084L20.8825 92.1266C22.6383 92.3517 27.4735 92.5859 32.7678 91.7213C39.3858 90.6407 41.5467 88.8846 45.7336 87.8039C49.9204 86.7233 55.1878 83.076 57.2137 81.455C58.8344 80.1582 65.7225 77.2224 68.9639 75.9166C67.0281 75.0161 61.8598 72.8637 56.6735 71.4589C50.1906 69.7028 43.7077 64.0293 40.8714 62.5434C38.6024 61.3547 35.2439 57.0951 33.8483 55.1138C31.7774 53.2677 28.1488 49.1972 30.2017 47.6843C29.3373 49.1972 38.8455 56.8699 43.7077 60.5172C48.84 63.6691 61.5896 70.081 71.5301 70.5133C81.4705 70.9456 88.9978 79.0686 91.519 83.076C93.86 87.7139 99.0553 98.4485 101.108 104.284C103.674 111.579 109.482 116.982 110.968 119.684C112.156 121.845 120.737 128.329 124.879 131.301C124.474 127.788 123.663 120.467 123.663 119.278C119.611 115.766 120.557 114.956 118.126 111.849C116.181 109.363 115.245 102.078 115.019 98.7456C115.2 95.7738 115.479 88.4793 115.154 83.076C114.749 76.3219 111.373 76.0517 110.292 73.35C109.428 71.1887 104.62 67.9467 102.324 66.5959C102.054 66.5959 101.405 66.3798 100.973 65.5152C109.887 67.5415 116.235 78.6183 117.451 80.6445C118.666 82.6708 119.476 92.3967 119.206 99.0158C118.936 105.635 122.313 107.391 122.853 109.417C123.285 111.038 124.744 111.714 125.419 111.849L126.229 108.877L127.715 101.582L130.416 91.3161L131.227 83.4813C131.362 81.2749 131.389 76.0787 130.416 72.9448C129.201 69.0274 115.695 56.4647 110.022 53.763C104.35 51.0614 95.1656 49.0351 89.8982 47.4141C85.6844 46.1173 80.5791 42.6412 78.5532 41.0652C74.9066 38.0934 67.1811 30.4477 65.4524 23.6395C71.1249 36.7426 89.6281 44.1721 91.519 45.2528C93.4098 46.3335 105.43 48.6299 107.861 48.6299C104.944 45.9282 102.684 29.5832 101.919 21.7484L99.4875 0C102.099 8.19503 107.321 26.4492 107.321 33.9058C107.321 43.2265 115.83 50.3859 116.505 52.0069C117.18 53.6279 126.364 60.5172 127.85 60.3821C129.336 60.247 137.169 69.2976 137.845 72.4045C139.6 73.0799 146.624 62.9487 151.216 59.3014C155.808 55.6542 153.241 41.2003 153.241 39.039C153.241 37.3099 149.19 25.0804 147.164 19.1818C146.759 15.0392 146.705 6.29487 149.73 4.45774C147.299 7.96989 149.19 18.9116 149.73 20.5326C150.27 22.1536 153.647 30.7989 154.457 31.8796C155.105 32.7441 156.798 37.6431 157.563 39.9846C158.374 36.7876 161.615 29.7183 168.098 27.0166C176.202 23.6395 177.012 8.24006 178.903 5.13315C179.335 10.4284 175.842 18.9566 174.041 22.5589C171.745 25.7558 166.639 32.501 164.587 33.9058C162.534 35.3107 160.13 41.9658 159.184 45.1177C158.554 51.7368 156.402 65.137 152.836 65.7854C148.379 66.5959 143.247 76.7271 141.626 77.9429C140.33 78.9155 138.835 88.1641 138.25 92.6669C137.619 97.1246 136.035 106.445 134.738 108.066C133.442 109.687 134.198 119.548 134.738 124.276C135.053 127.473 136.521 134.408 139.87 136.569C141.086 124.141 147.164 119.278 149.865 114.415C150.297 110.633 154.007 100.412 155.808 95.7738C159.409 89.8302 167.72 77.9429 172.15 77.9429C168.692 78.6993 162.606 90.1454 159.994 95.7738C157.788 101.132 154.025 111.092 156.618 108.066C159.211 105.041 173.996 99.6012 181.064 97.2597C184.485 94.423 191.409 88.3713 191.734 86.8583C196.191 84.4268 196.731 73.4852 197.811 66.8661C198.676 61.5708 201.593 54.8437 202.944 52.142C205.735 46.4685 210.912 33.6086 209.291 27.5569C210.372 21.208 207.266 16.8854 207.671 13.9135C209.291 14.589 209.426 19.9923 210.372 23.0992C211.317 26.2061 210.102 37.1478 210.372 37.8232C210.642 38.4986 209.426 46.1984 208.211 47.4141C207.238 48.3867 205.195 55.9243 204.294 59.5716C203.484 64.2094 201.863 74.6739 201.863 79.4288C201.863 85.3724 199.432 86.1829 198.622 88.0741C197.811 89.9652 196.326 90.2354 195.65 92.802C201.593 94.9633 209.697 89.1547 211.047 89.2898C212.398 89.4249 214.694 87.2636 215.234 87.2636C215.666 87.2636 216.855 86.0028 217.395 85.3724L219.826 82.6708L221.177 80.5094L222.932 77.2675L225.229 72.6746L227.119 68.8923L230.766 62.4083L234.413 57.005L239.95 50.2509L246.298 44.7125C249.584 42.4611 256.643 38.6337 258.588 41.3354C249.404 42.1459 242.381 52.142 241.841 52.142C241.409 52.142 237.879 57.3652 236.168 59.9768C234.278 63.3989 230.28 70.8915 229.415 73.4852C228.335 76.7272 224.688 81.3199 223.608 85.3724C226.849 86.7232 231.711 82.2655 233.467 81.8603C235.223 81.455 236.168 79.834 237.114 79.4288C237.87 79.1046 238.509 78.3031 238.735 77.9429L239.95 76.7271L240.895 75.7815L241.841 74.4307L243.056 72.9448L244.002 72.2694L244.947 71.4589L246.703 70.2431L249.809 68.4871L253.051 67.0011L260.614 64.8399C263.541 64.4797 269.933 63.8403 272.094 64.1645C274.255 64.4887 275.246 65.2901 275.471 65.6503C272.635 65.6954 266.638 65.7584 265.341 65.6503C264.045 65.5423 259.669 67.1362 257.643 67.9467C254.852 69.2075 249.053 72.0803 248.189 73.4852C247.378 73.3501 242.921 78.6183 237.654 84.0217C232.387 89.425 223.743 90.6407 220.366 92.3968C216.99 94.1529 217.665 90.9109 215.909 93.2073C214.505 95.0444 206.68 97.575 202.944 98.6106L195.65 100.772L184.035 104.96L171.204 110.228C166.252 113.245 156.105 120.278 155.132 124.276C151.351 127.248 152.161 136.299 151.486 136.569C150.81 136.839 151.486 145.755 151.486 147.376C151.053 148.24 152.566 153.049 153.377 155.345L161.075 165.882C161.345 166.963 162.209 169.232 163.506 169.664C164.316 166.827 170.934 158.723 171.61 158.182C172.15 157.75 173.275 156.561 173.771 156.021L174.446 154.4L175.391 152.374L176.337 149.807L177.552 147.376L178.633 145.079L179.713 143.188L181.064 141.027L183.36 138.055L186.196 134.813L188.627 132.652L191.599 130.625L196.596 128.059L201.323 125.492C203.484 124.547 207.887 122.439 208.211 121.575C209.075 121.467 211.542 119.639 212.668 118.738C213.928 117.387 216.531 114.604 216.855 114.28C217.179 113.956 217.98 112.794 218.34 112.254L219.421 109.822V110.768V111.984L218.881 113.2L218.07 114.685L217.395 116.036L215.909 117.927L214.559 119.278L213.073 120.629L211.047 122.25L208.211 124.276L203.889 126.843L200.377 129.274C196.821 131.571 189.492 136.596 188.627 138.325C186.574 138.865 183.63 146.205 182.414 149.807C189.753 147.736 205.942 143.539 211.993 143.323C218.043 143.107 223.698 135.758 225.769 132.111C227.389 129.274 231.063 123.061 232.792 120.899C242.111 110.768 244.947 110.633 246.703 108.877C248.108 107.472 256.562 105.32 260.614 104.419C264.351 104.104 272.391 103.176 274.66 101.988C277.497 102.258 281.414 98.0703 283.034 96.9896C284.331 96.1251 286.186 92.9371 286.951 91.4512L289.787 87.9391C288.707 90.9109 286.222 97.0977 284.925 98.0703C284.52 99.8264 279.388 102.528 278.442 103.474C277.497 104.419 271.554 105.77 269.393 106.581C267.664 107.229 265.611 107.391 264.801 107.391L258.588 109.147L251.16 112.254L244.947 116.171C242.831 118.063 238.599 122.196 238.599 123.601C237.519 123.709 233.917 131.211 232.252 134.948H248.999C251.7 135.353 258.345 135.731 263.315 134.002C268.988 134.408 272.229 129.95 273.85 129.545C275.471 129.139 279.253 125.222 280.063 124.006C280.711 123.034 284.115 121.169 285.735 120.359C288.932 119.593 295.46 118.414 296 119.819C294.379 119.548 289.247 121.169 288.572 121.034C287.896 120.899 284.115 123.196 283.034 124.682C282.224 124.411 278.847 128.599 277.632 130.355C276.416 132.111 272.094 133.327 270.879 134.948C269.663 136.569 263.315 137.109 261.425 138.19C259.912 139.054 253.951 139.451 251.16 139.541H236.979C234.863 139.586 229.74 140.594 226.174 144.269C221.717 148.861 218.611 149.267 217.395 150.347C216.423 151.212 211.677 152.509 209.426 153.049L203.619 154.265L201.593 154.805C198.982 155.255 193.597 156.264 192.949 156.696C192.274 156.561 187.006 158.858 185.926 159.803C185.116 159.398 177.282 167.368 177.012 169.124C174.203 169.88 172.78 180.426 172.42 185.604C172.375 190.737 172.42 202.543 172.96 208.703C173.5 214.863 171.925 225.408 171.069 229.911C170.484 235.36 169.179 246.797 168.638 248.958C168.098 251.119 168.863 257.243 169.314 260.035C169.449 260.935 169.989 263.196 171.069 265.033C172.42 267.329 173.906 267.599 176.067 269.491C177.795 271.003 181.019 271.202 182.414 271.112C183.27 271.157 185.764 270.652 188.897 268.275C192.031 265.897 197.766 264.582 200.242 264.222C201.863 264.312 205.402 264.438 206.59 264.222C207.779 264.006 211.317 265.033 212.938 265.573C209.291 265.483 201.647 265.573 200.242 266.654C198.487 265.843 187.277 272.192 185.656 274.083C184.359 275.596 182.955 275.704 182.414 275.569L192.274 279.892C195.875 281.828 203.781 285.052 206.59 282.458C210.102 279.216 217.8 276.92 219.016 276.92C220.231 276.92 225.769 276.92 231.171 279.892C235.43 282.235 236.192 285.557 236.041 286.989C236.039 287.011 236.036 287.031 236.033 287.051C236.036 287.031 236.038 287.01 236.041 286.989C236.112 286.084 234.873 283.746 229.28 281.108C222.122 277.731 221.447 280.567 218.611 280.297C216.342 280.081 212.263 282.999 210.507 284.485C215.054 285.34 224.067 287.727 223.743 290.428C223.338 293.805 229.685 296.642 230.496 298.263C231.144 299.56 237.429 299.344 240.49 299.074H242.921C241.481 299.389 238.086 300.127 236.033 300.56C233.467 301.1 228.335 299.479 225.769 296.642C223.203 293.805 225.769 294.751 222.122 291.239C219.205 288.429 213.973 287.276 211.722 287.051C208.481 287.141 200.864 287.267 196.326 287.051C190.653 286.781 181.199 282.053 179.308 282.053C178.768 283.134 188.807 290.609 193.895 294.211C195.74 297.318 201.566 303.396 210.102 302.856C220.772 302.181 223.878 305.423 226.444 305.963C228.497 306.395 230.451 308.845 231.171 310.015C229.055 308.935 223.905 306.503 220.231 305.423C215.639 304.072 210.507 305.288 206.59 305.423C202.673 305.558 204.294 304.342 201.998 304.747C200.242 309.07 204.969 317.04 205.645 320.552C206.32 324.064 210.777 326.901 211.993 328.657C213.208 330.413 214.694 329.737 215.369 330.953C205.51 329.062 206.455 323.118 204.294 321.497C202.133 319.876 198.892 309.745 197.946 306.233C197.19 303.423 192.319 299.479 189.978 297.858L177.282 290.023C174.221 286.961 167.72 280 166.207 276.65C164.695 273.3 161.975 268.95 160.805 267.194C160.13 268.365 158.563 271.733 157.698 275.839C156.834 279.946 158.689 285.926 159.724 288.402C161.345 291.959 166.234 299.965 172.825 303.531C181.064 307.989 181.739 312.987 182.82 314.473C183.684 315.662 183.63 320.192 183.495 322.308C183.45 324.019 183.252 326.577 182.82 323.118C182.279 318.796 181.739 317.985 180.794 315.824C179.578 309.34 175.256 308.8 170.124 306.098C164.992 303.396 166.612 301.235 163.911 301.235C164.992 302.64 164.361 306.863 163.911 308.8C162.696 310.601 160.427 314.851 161.075 317.445C159.886 318.742 161.84 322.938 162.966 324.875C163.236 326 163.803 329.116 163.911 332.574C164.046 336.897 159.454 339.464 158.374 340.814C157.698 340.274 157.833 344.191 157.293 346.353C156.429 345.164 157.293 341.265 157.833 339.463C159.409 338.248 162.561 334.655 162.561 330.008C159.184 324.739 158.239 317.58 157.833 317.445C157.509 317.337 153.467 320.282 151.486 321.768C150.135 322.578 147.353 324.604 147.029 326.225C145.813 326.225 147.434 329.873 147.029 331.764C143.787 326.469 146.488 322.623 148.244 321.362C153.962 317.22 163.857 307.044 157.698 299.479C150 290.023 151.351 286.241 149.865 284.079C148.676 282.35 149.37 271.202 149.865 265.843C148.694 268.545 146.164 274.137 145.408 274.894C144.652 275.65 141.311 282.053 139.735 285.16C138.745 287.547 137.358 293.4 139.735 297.723C142.707 303.126 142.842 305.558 143.247 309.61C143.571 312.852 142.212 315.104 141.491 315.824C140.456 316.725 138.925 317.742 141.086 314.608C143.787 310.691 140.546 305.152 140.411 303.802C140.276 302.451 137.304 297.993 136.224 296.777C135.359 295.805 135.143 291.689 135.143 289.753C132.307 292.59 126.554 298.776 126.229 300.83C124.339 302.046 125.419 311.366 125.284 313.663C125.149 315.959 126.635 318.796 127.715 320.552C128.579 321.957 129.516 324.92 129.876 326.225C130.056 328.342 129.957 332.574 128.12 332.574C129.336 328.792 128.525 326.496 127.715 324.199C127.067 322.362 123.843 317.31 122.313 315.013C120.962 316.77 117.775 320.579 115.83 321.768C113.399 323.254 113.804 324.334 112.994 326.496C112.345 328.225 114.344 331.268 115.425 332.574C116.1 334.24 117.505 337.842 117.721 338.923C117.937 340.004 117.36 341.715 117.045 342.435C116.64 343.066 115.749 344.164 115.425 343.516C116.235 343.516 116.37 340.814 116.37 339.463C116.37 338.113 115.29 335.006 113.399 332.574C111.508 330.143 111.238 324.875 112.048 322.713C112.696 320.984 117.991 315.959 120.557 313.663C121.502 308.259 123.231 297.318 122.583 296.777C121.935 296.237 116.46 299.704 113.804 301.505C111.508 303.171 106.97 307.827 107.186 313.122C107.456 319.741 105.025 325.415 104.62 327.576C104.296 329.305 101.153 331.629 99.6226 332.574C98.8572 333.655 97.3266 336.167 97.3266 337.572C96.4622 338.005 96.9664 342.435 97.3266 344.597C97.3716 346.398 97.3536 350 96.9214 350C96.3811 350 96.2461 348.919 95.7058 347.433C95.2736 346.245 95.5257 341.265 95.7058 338.923C96.021 336.267 97.0024 330.899 98.407 330.683C99.8117 330.467 101.784 327.801 102.594 326.496C103.089 323.344 103.782 316.797 102.594 315.824C101.297 319.066 94.7604 321.948 91.654 322.983C88.8178 323.884 82.9562 326.171 82.1998 328.117C80.5791 326.901 79.9038 331.899 78.5532 332.574C77.7428 332.034 77.4727 336.492 76.3922 337.572C78.3371 328.603 82.1548 324.829 83.8205 324.064C86.0265 322.623 90.9787 319.714 93.1397 319.606C95.8409 319.471 97.8668 315.419 99.6226 314.068C101.108 314.068 103.809 306.638 106.105 302.316C107.942 298.858 114.614 294.391 117.721 292.59C120.332 291.329 126.148 288.402 128.525 286.781C130.903 285.16 135.188 276.47 137.034 272.327C134.828 273.903 129.876 276.758 127.715 275.569C125.554 274.381 119.251 276.695 116.37 278.001C112.543 280.387 104.917 285.484 105.025 286.781C105.133 288.078 101.288 292.725 99.3525 294.886C97.7317 296.147 94.2202 298.722 93.1397 298.939C92.0592 299.155 90.8887 301.28 90.4385 302.316C90.4385 303.712 90.1413 306.827 88.9528 308.124C88.5476 305.423 89.7632 301.37 90.4385 300.019C90.9787 298.939 94.7154 295.336 96.5162 293.67C98.1819 291.869 101.405 287.97 100.973 286.781C96.7863 285.295 92.4644 287.051 89.7632 286.781C87.062 286.511 85.9815 290.969 85.5763 290.563C85.2522 290.239 84.7209 296.372 84.4958 299.479C83.8656 300.65 82.3619 302.856 81.3895 302.316C83.4154 301.505 83.5504 300.695 83.8205 294.886C84.0366 290.239 86.1616 287.186 87.197 286.241C88.8178 285.385 92.9506 283.701 96.5162 283.809C100.973 283.944 99.7576 283.539 103.134 282.458C105.835 281.594 109.932 277.505 111.643 275.569C109.437 274.984 103.62 274.083 98.0019 275.164C93.4638 273.867 87.107 279.487 84.4958 282.458C82.1098 285.025 77.0405 290.861 75.852 293.67C72.7456 295.291 70.5846 304.612 70.5846 308.529C70.5846 312.447 66.2627 315.689 65.4524 314.608C64.642 313.528 59.2396 317.445 57.889 317.715C56.8085 317.931 54.5575 321.858 53.5671 323.794C53.5671 321.993 54.4315 317.958 57.889 316.229C62.2109 314.068 67.0731 311.096 67.8834 309.475C68.5317 308.178 68.1536 303.531 67.8834 301.37C63.7866 303.441 55.1878 307.206 53.5671 305.693C51.9464 304.18 44.428 309.385 40.8714 312.177C38.9806 314.338 35.0908 318.282 34.6586 316.77C40.8714 308.665 50.4607 302.991 58.2942 301.775C66.1277 300.56 71.9352 292.725 71.9352 290.969C70.7467 291.293 64.687 290.563 61.8057 290.158C59.6898 289.933 54.9717 289.699 53.0268 290.563C51.136 289.483 45.5985 294.076 43.4376 295.156C46.3549 290.942 53.1169 288.807 56.1332 288.267C59.6448 288.537 67.4242 288.915 70.4496 288.267C74.2313 287.457 76.5273 284.079 78.9584 279.757C80.9032 276.299 84.4508 273.363 85.9815 272.327C86.4767 272.192 88.3045 271.355 91.654 269.085C83.6855 264.628 71.8002 273.138 68.1536 275.975C65.2363 278.244 57.6639 280.702 54.2424 281.648C49.8304 282.143 41.0065 282.837 41.0065 281.648C42.3571 281.918 47.6244 281.918 53.432 280.297C58.0781 279 61.9408 274.984 63.2914 273.138C61.4906 273.678 55.8361 273.462 47.6244 268.275Z" fill="#F5F5F5"/>
</g>
<defs>
<filter id="filter0_d_144_573" x="0" y="0" width="300" height="358" filterUnits="userSpaceOnUse" color-interpolation-filters="sRGB">
<feFlood flood-opacity="0" result="BackgroundImageFix"/>
<feColorMatrix in="SourceAlpha" type="matrix" values="0 0 0 0 0 0 0 0 0 0 0 0 0 0 0 0 0 0 127 0" result="hardAlpha"/>
<feOffset dy="4"/>
<feGaussianBlur stdDeviation="2"/>
<feComposite in2="hardAlpha" operator="out"/>
<feColorMatrix type="matrix" values="0 0 0 0 0.270588 0 0 0 0 0.458824 0 0 0 0 0.215686 0 0 0 1 0"/>
<feBlend mode="normal" in2="BackgroundImageFix" result="effect1_dropShadow_144_573"/>
<feBlend mode="normal" in="SourceGraphic" in2="effect1_dropShadow_144_573" result="shape"/>
</filter>
</defs>
</svg>
