<svg viewBox="0 0 174 204" fill="none" xmlns="http://www.w3.org/2000/svg">
<g filter="url(#filter0_d_312_436)">
<path d="M29.0375 149.909C24.3883 147.026 19.9633 148.708 18.332 149.909L19.5555 148.257C20.8554 147.807 24.2812 146.936 27.5846 147.056C31.7139 147.206 34.3138 149.909 37.9078 150.885C40.783 151.666 42.5723 150.559 43.1076 149.909C44.0762 148.833 46.9157 146.545 50.525 146.005C54.1343 145.464 57.8914 147.631 59.3188 148.783H65.8185C67.7557 148.933 72.1807 148.903 74.3829 147.581C77.7475 147.221 81.3925 140.924 82.7944 137.821L86.0061 130.764C86.5923 127.66 87.9025 121.289 88.453 120.628C89.0036 119.967 88.9373 115.147 88.8354 112.82C89.0393 110.893 88.9118 106.318 86.7707 103.435C86.5413 99.6056 82.3356 97.6536 80.6533 95.3261C79.3075 93.4642 72.0889 92.0477 68.6479 91.5722L61.9187 89.0945C60.2364 88.7942 56.4895 88.3287 54.9601 88.8693C53.5072 88.4188 50.4485 90.9715 49.6074 90.7463C52.6661 87.8933 58.5541 86.8422 59.5482 87.2176C66.3538 89.3198 70.0243 88.6441 73.0065 89.3198C74.7806 89.0795 79.6083 90.4209 81.8003 91.1217L68.9537 79.2592C67.2459 77.7576 63.448 74.7094 61.9187 74.5292C54.8225 71.8263 46.7271 73.5531 43.5664 74.7544C40.6351 75.5803 34.0691 77.2921 31.2551 77.5323C27.7375 77.8326 24.373 75.9557 21.926 75.2799C19.479 74.6042 16.038 75.2049 13.8969 75.9557C12.3063 75.5953 6.86182 78.7086 4.33838 80.3103C4.92463 79.7347 6.87711 78.1029 9.997 76.1809C13.8969 73.7784 18.1791 74.0036 19.479 73.478C20.779 72.9525 23.9906 74.0787 26.7435 74.7544C29.4963 75.4301 32.4021 75.28 33.9314 74.5292C34.9714 74.5892 37.9842 73.403 39.3607 72.8023L45.0193 70.625L47.8486 69.9493L51.672 69.1985L59.0129 68.9733L56.0307 63.5676L53.6602 56.5101C52.87 53.7822 50.7085 47.9361 48.3839 46.3744C45.4781 44.4223 42.3429 46.0741 41.6547 45.6987C40.9665 45.3233 31.1786 49.6028 29.8786 50.729C28.5787 51.8552 23.6083 52.0054 23.073 52.3057C22.6448 52.5459 19.0202 52.5559 17.2614 52.5309H15.0439L13.8969 52.0054C14.8909 52.1305 17.6285 52.2606 20.626 51.7801C24.373 51.1795 25.5964 50.2035 27.967 49.6028C30.3375 49.0022 33.3197 46.975 34.4667 46.0741C35.3843 45.3533 39.2842 43.7216 41.1194 42.9958C40.0234 42.4953 37.0972 41.299 34.1608 40.5182C30.4904 39.5422 26.8199 36.3889 25.2141 35.563C23.9294 34.9023 22.0279 32.5348 21.2378 31.4336C20.0653 30.4075 18.0108 28.1452 19.1731 27.3043C18.6838 28.1452 24.0671 32.4097 26.8199 34.4368C29.7257 36.1887 36.9443 39.7524 42.5723 39.9927C48.2003 40.2329 52.4622 44.7477 53.8896 46.975C55.215 49.5528 58.1565 55.5191 59.3188 58.7625C60.7717 62.8168 64.0598 65.82 64.9009 67.3215C65.5738 68.5228 70.4321 72.1266 72.7771 73.7784C72.5477 71.8263 72.0889 67.757 72.0889 67.0963C69.7949 65.1442 70.3301 64.6938 68.9537 62.9669C67.8526 61.5855 67.3224 57.5362 67.195 55.6842C67.2969 54.0325 67.455 49.9782 67.2714 46.975C67.042 43.2211 65.1303 43.0709 64.5186 41.5693C64.0292 40.3681 61.3069 38.5662 60.007 37.8154C59.8541 37.8154 59.487 37.6952 59.2423 37.2147C64.2892 38.3409 67.8832 44.4974 68.5714 45.6236C69.2596 46.7498 69.7184 52.1555 69.5655 55.8344C69.4125 59.5133 71.3242 60.4893 71.6301 61.6155C71.8748 62.5165 72.7007 62.8919 73.083 62.9669L73.5418 61.3152L74.3829 57.2609L75.9123 51.5549L76.3711 47.2003C76.4476 45.974 76.4629 43.0859 75.9123 41.3441C75.2241 39.1668 67.5773 32.1844 64.3657 30.6828C61.154 29.1813 55.9542 28.0551 52.9719 27.1541C50.5861 26.4333 47.6957 24.5013 46.5486 23.6254C44.484 21.9736 40.11 17.7241 39.1313 13.9401C42.3429 21.2228 52.819 25.3522 53.8896 25.9528C54.9601 26.5535 61.7658 27.8298 63.1422 27.8298C61.4905 26.3282 60.2109 17.2436 59.7776 12.889L58.4012 0.80127C59.8795 5.35608 62.8363 15.5018 62.8363 19.6462C62.8363 24.8267 67.6538 28.8059 68.0361 29.7068C68.4184 30.6078 73.6183 34.4368 74.4594 34.3617C75.3006 34.2866 79.7357 39.317 80.118 41.0438C81.1121 41.4192 85.0884 35.7882 87.6884 33.7611C90.2883 31.7339 88.8354 23.7005 88.8354 22.4992C88.8354 21.5382 86.5413 14.741 85.3943 11.4625C85.1649 9.1601 85.1343 4.29997 86.8472 3.27889C85.4708 5.23095 86.5413 11.3124 86.8472 12.2133C87.1531 13.1143 89.0648 17.9194 89.5236 18.52C89.8906 19.0005 90.849 21.7234 91.2823 23.0247C91.7411 21.2479 93.5764 17.3187 97.2468 15.8171C101.835 13.9401 102.294 5.38111 103.364 3.65428C103.609 6.59739 101.631 11.3374 100.611 13.3395C99.3115 15.1164 96.421 18.8654 95.2587 19.6462C94.0964 20.427 92.7352 24.1259 92.2 25.8778C91.8431 29.5566 90.6247 37.0045 88.606 37.3649C86.0825 37.8154 83.1768 43.4463 82.2591 44.122C81.525 44.6626 80.6788 49.803 80.3474 52.3057C79.9906 54.7833 79.0934 59.9638 78.3593 60.8647C77.6252 61.7657 78.0534 67.2465 78.3593 69.8743C78.5377 71.6511 79.3687 75.5052 81.2651 76.7065C81.9533 69.7992 85.3943 67.0963 86.9237 64.3934C87.1684 62.2912 89.2687 56.6102 90.2883 54.0325C92.3274 50.729 97.0327 44.122 99.5409 44.122C97.5833 44.5425 94.1371 50.9042 92.6588 54.0325C91.4098 57.0107 89.2789 62.5465 90.7471 60.8647C92.2153 59.1829 100.586 56.1598 104.588 54.8584C106.525 53.2817 110.445 49.9182 110.629 49.0773C113.152 47.7258 113.458 41.6444 114.07 37.9655C114.559 35.0224 116.211 31.2835 116.976 29.7819C118.556 26.6286 121.487 19.481 120.57 16.1174C121.181 12.5887 119.423 10.1862 119.652 8.53444C120.57 8.90983 120.646 11.913 121.181 13.6398C121.717 15.3667 121.028 21.4481 121.181 21.8235C121.334 22.1989 120.646 26.4784 119.958 27.1541C119.407 27.6947 118.25 31.8841 117.74 33.9112C117.281 36.489 116.364 42.3051 116.364 44.9479C116.364 48.2514 114.987 48.7019 114.529 49.753C114.07 50.8041 113.229 50.9543 112.846 52.3808C116.211 53.582 120.799 50.3536 121.564 50.4287C122.328 50.5038 123.628 49.3025 123.934 49.3025C124.179 49.3025 124.852 48.6018 125.158 48.2514L126.534 46.7498L127.299 45.5485L128.293 43.7466L129.593 41.1939L130.663 39.0917L132.728 35.4879L134.793 32.4847L137.928 28.7308L141.522 25.6525C143.382 24.4012 147.379 22.274 148.48 23.7755C143.281 24.226 139.304 29.7819 138.998 29.7819C138.754 29.7819 136.755 32.6849 135.787 34.1365C134.716 36.0385 132.453 40.2029 131.963 41.6444C131.352 43.4464 129.287 45.999 128.675 48.2514C130.51 49.0022 133.263 46.5246 134.257 46.2993C135.251 46.0741 135.787 45.1731 136.322 44.9479C136.75 44.7677 137.112 44.3222 137.24 44.122L137.928 43.4463L138.463 42.9208L138.998 42.17L139.687 41.3441L140.222 40.9687L140.757 40.5182L141.751 39.8425L143.51 38.8665L145.345 38.0406L149.627 36.8394C151.284 36.6392 154.904 36.2838 156.127 36.464C157.351 36.6442 157.911 37.0896 158.039 37.2898C156.433 37.3148 153.038 37.3499 152.304 37.2898C151.57 37.2298 149.092 38.1157 147.945 38.5662C146.365 39.2669 143.082 40.8636 142.592 41.6444C142.133 41.5694 139.61 44.4975 136.628 47.5006C133.646 50.5038 128.752 51.1795 126.84 52.1555C124.928 53.1316 125.311 51.3297 124.316 52.606C123.521 53.6271 119.091 55.0336 116.976 55.6092L112.846 56.8105L106.27 59.1379L99.0056 62.066C96.2018 63.7428 90.4565 67.6519 89.9059 69.8743C87.7648 71.526 88.2236 76.5563 87.8413 76.7065C87.4589 76.8566 87.8413 81.8119 87.8413 82.7128C87.5966 83.1933 88.453 85.8661 88.9118 87.1425L93.2705 92.9987C93.4234 93.5993 93.9128 94.8606 94.6469 95.1009C95.1057 93.5242 98.8527 89.0195 99.235 88.7192C99.5409 88.4789 100.178 87.8182 100.458 87.5179L100.841 86.6169L101.376 85.4908L101.911 84.0642L102.6 82.7128L103.211 81.4365L103.823 80.3854L104.588 79.1841L105.888 77.5323L107.494 75.7305L108.87 74.5292L110.552 73.403L113.382 71.9765L116.058 70.55C117.281 70.0244 119.774 68.8532 119.958 68.3727C120.447 68.3126 121.844 67.2965 122.481 66.796C123.195 66.0452 124.668 64.4986 124.852 64.3184C125.035 64.1382 125.489 63.4925 125.693 63.1922L126.305 61.8408V62.3663V63.042L125.999 63.7178L125.54 64.5436L125.158 65.2944L124.316 66.3455L123.552 67.0963L122.711 67.8471L121.564 68.7481L119.958 69.8743L117.511 71.3008L115.523 72.6522C113.509 73.9286 109.359 76.7215 108.87 77.6825C107.708 77.9828 106.041 82.0621 105.352 84.0642C109.507 82.913 118.673 80.5806 122.099 80.4604C125.525 80.3403 128.726 76.256 129.899 74.2289C130.816 72.6522 132.896 69.1986 133.875 67.9973C139.151 62.3663 140.757 62.2913 141.751 61.3152C142.546 60.5344 147.333 59.3381 149.627 58.8376C151.743 58.6624 156.295 58.1469 157.58 57.4862C159.186 57.6363 161.403 55.3089 162.321 54.7082C163.055 54.2277 164.105 52.4559 164.539 51.63L166.144 49.6779C165.533 51.3297 164.126 54.7683 163.392 55.3089C163.162 56.2849 160.256 57.7865 159.721 58.312C159.186 58.8376 155.821 59.5884 154.598 60.0389C153.619 60.3993 152.457 60.4894 151.998 60.4894L148.48 61.4654L144.275 63.1922L140.757 65.3695C139.559 66.4206 137.163 68.718 137.163 69.4989C136.551 69.5589 134.512 73.7283 133.569 75.8055H143.051C144.58 76.0307 148.343 76.241 151.157 75.28C154.368 75.5052 156.204 73.0276 157.121 72.8024C158.039 72.5771 160.18 70.3998 160.639 69.7241C161.006 69.1835 162.933 68.1474 163.85 67.6969C165.66 67.2715 169.356 66.6158 169.662 67.3966C168.744 67.2464 165.839 68.1474 165.456 68.0723C165.074 67.9972 162.933 69.2736 162.321 70.0994C161.862 69.9493 159.951 72.2767 159.262 73.2528C158.574 74.2288 156.127 74.9045 155.439 75.8055C154.751 76.7064 151.157 77.0067 150.086 77.6074C149.23 78.0879 145.855 78.3081 144.275 78.3582H136.245C135.047 78.3832 132.147 78.9438 130.128 80.9859C127.605 83.5386 125.846 83.7639 125.158 84.3645C124.607 84.845 121.92 85.5658 120.646 85.8661L117.358 86.5418L116.211 86.8421C114.732 87.0924 111.684 87.653 111.317 87.8932C110.935 87.8182 107.952 89.0945 107.341 89.6201C106.882 89.3949 102.447 93.8245 102.294 94.8006C100.703 95.221 99.8977 101.082 99.6938 103.96C99.6683 106.813 99.6938 113.375 99.9997 116.799C100.306 120.222 99.4134 126.084 98.9291 128.586C98.5978 131.614 97.8586 137.971 97.5527 139.172C97.2468 140.374 97.6802 143.777 97.9351 145.329C98.0115 145.829 98.3174 147.086 98.9291 148.107C99.6938 149.383 100.535 149.533 101.758 150.585C102.737 151.425 104.562 151.536 105.352 151.485C105.837 151.51 107.249 151.23 109.023 149.909C110.797 148.587 114.044 147.857 115.446 147.656C116.364 147.706 118.367 147.777 119.04 147.656C119.713 147.536 121.717 148.107 122.634 148.407C120.57 148.357 116.241 148.407 115.446 149.008C114.452 148.557 108.105 152.086 107.188 153.137C106.454 153.978 105.658 154.038 105.352 153.963L110.935 156.366C112.974 157.442 117.45 159.234 119.04 157.792C121.028 155.99 125.387 154.714 126.075 154.714C126.763 154.714 129.899 154.714 132.957 156.366C135.369 157.668 135.8 159.514 135.714 160.31C135.713 160.322 135.712 160.334 135.71 160.345C135.712 160.334 135.713 160.322 135.714 160.31C135.755 159.807 135.054 158.508 131.887 157.041C127.834 155.164 127.452 156.741 125.846 156.591C124.561 156.471 122.252 158.092 121.258 158.918C123.832 159.394 128.935 160.72 128.752 162.222C128.522 164.099 132.116 165.675 132.575 166.576C132.942 167.297 136.5 167.177 138.234 167.027H139.61C138.794 167.202 136.872 167.613 135.71 167.853C134.257 168.153 131.352 167.252 129.899 165.675C128.446 164.099 129.899 164.624 127.834 162.672C126.182 161.111 123.22 160.47 121.946 160.345C120.111 160.395 115.798 160.465 113.229 160.345C110.017 160.195 104.664 157.567 103.594 157.567C103.288 158.168 108.972 162.322 111.852 164.324C112.897 166.051 116.196 169.429 121.028 169.129C127.069 168.754 128.828 170.556 130.281 170.856C131.443 171.096 132.549 172.458 132.957 173.108C131.759 172.508 128.843 171.156 126.763 170.556C124.164 169.805 121.258 170.481 119.04 170.556C116.823 170.631 117.74 169.955 116.44 170.18C115.446 172.583 118.123 177.012 118.505 178.964C118.887 180.917 121.411 182.493 122.099 183.469C122.787 184.445 123.628 184.07 124.011 184.746C118.428 183.694 118.964 180.391 117.74 179.49C116.517 178.589 114.682 172.958 114.146 171.006C113.718 169.444 110.96 167.252 109.635 166.351L102.447 161.997C100.713 160.295 97.0327 156.426 96.1763 154.564C95.3198 152.702 93.7803 150.284 93.1176 149.308C92.7352 149.959 91.8482 151.831 91.3588 154.113C90.8694 156.396 91.9196 159.719 92.5058 161.096C93.4234 163.073 96.1916 167.522 99.9232 169.504C104.588 171.982 104.97 174.76 105.582 175.586C106.071 176.247 106.041 178.764 105.964 179.941C105.939 180.892 105.827 182.313 105.582 180.391C105.276 177.988 104.97 177.538 104.435 176.337C103.747 172.733 101.3 172.433 98.3939 170.931C95.4881 169.429 96.4057 168.228 94.8763 168.228C95.4881 169.009 95.1312 171.356 94.8763 172.433C94.1881 173.434 92.9035 175.796 93.2705 177.238C92.5976 177.958 93.7038 180.291 94.3411 181.367C94.494 181.993 94.8152 183.725 94.8763 185.647C94.9528 188.049 92.3529 189.476 91.7412 190.226C91.3588 189.926 91.4353 192.103 91.1294 193.305C90.64 192.644 91.1294 190.477 91.4353 189.476C92.3274 188.8 94.1117 186.803 94.1117 184.22C92.2 181.292 91.6647 177.313 91.4353 177.238C91.2518 177.178 88.9628 178.814 87.8413 179.64C87.0766 180.091 85.5014 181.217 85.3179 182.118C84.6296 182.118 85.5473 184.145 85.3179 185.196C83.4826 182.253 85.012 180.116 86.0061 179.415C89.2432 177.113 94.8457 171.457 91.3588 167.252C87.0001 161.997 87.7648 159.894 86.9237 158.693C86.2508 157.732 86.6433 151.536 86.9237 148.557C86.261 150.059 84.8285 153.167 84.4002 153.588C83.972 154.008 82.0807 157.567 81.1886 159.294C80.6278 160.62 79.8428 163.874 81.1886 166.276C82.8709 169.279 82.9473 170.631 83.1768 172.883C83.3603 174.685 82.5905 175.936 82.1827 176.337C81.5964 176.837 80.7298 177.403 81.9533 175.661C83.4826 173.484 81.6474 170.405 81.5709 169.655C81.4945 168.904 79.8122 166.426 79.2004 165.751C78.711 165.21 78.5887 162.923 78.5887 161.846C76.9829 163.423 73.7253 166.862 73.5418 168.003C72.4712 168.679 73.083 173.859 73.0065 175.135C72.9301 176.412 73.7712 177.988 74.3829 178.964C74.8723 179.745 75.4025 181.392 75.6064 182.118C75.7084 183.294 75.6523 185.647 74.6124 185.647C75.3006 183.544 74.8418 182.268 74.3829 180.992C74.0159 179.971 72.1909 177.163 71.3242 175.886C70.5596 176.862 68.7549 178.979 67.6538 179.64C66.2774 180.466 66.5068 181.067 66.0479 182.268C65.6809 183.229 66.8126 184.921 67.4244 185.647C67.8067 186.573 68.602 188.575 68.7243 189.175C68.8467 189.776 68.5204 190.727 68.342 191.127C68.1126 191.478 67.6079 192.088 67.4244 191.728C67.8832 191.728 67.9596 190.226 67.9596 189.476C67.9596 188.725 67.3479 186.998 66.2774 185.647C65.2068 184.295 65.0539 181.367 65.5127 180.166C65.8797 179.205 68.8773 176.412 70.3301 175.135C70.8654 172.132 71.8442 166.051 71.4772 165.751C71.1101 165.45 68.0106 167.377 66.5068 168.378C65.2068 169.304 62.6375 171.892 62.7598 174.835C62.9128 178.514 61.5363 181.667 61.3069 182.869C61.1234 183.83 59.3443 185.121 58.4776 185.647C58.0443 186.247 57.1777 187.644 57.1777 188.424C56.6883 188.665 56.9738 191.127 57.1777 192.329C57.2032 193.33 57.193 195.332 56.9483 195.332C56.6424 195.332 56.5659 194.731 56.2601 193.905C56.0154 193.245 56.1581 190.477 56.2601 189.175C56.4385 187.699 56.9942 184.716 57.7894 184.595C58.5847 184.475 59.7011 182.994 60.1599 182.268C60.4403 180.516 60.8328 176.877 60.1599 176.337C59.4258 178.139 55.7248 179.74 53.966 180.316C52.3602 180.816 49.0415 182.088 48.6133 183.169C47.6957 182.493 47.3133 185.271 46.5486 185.647C46.0898 185.346 45.9369 187.824 45.3252 188.424C46.4263 183.439 48.5878 181.342 49.5309 180.917C50.7799 180.116 53.5837 178.499 54.8072 178.439C56.3365 178.364 57.4835 176.111 58.4776 175.361C59.3188 175.361 60.8481 171.231 62.1481 168.829C63.1881 166.907 66.9656 164.424 68.7243 163.423C70.2027 162.722 73.4959 161.096 74.8418 160.195C76.1876 159.294 78.6142 154.464 79.6592 152.161C78.4103 153.037 75.6064 154.624 74.3829 153.963C73.1595 153.302 69.591 154.589 67.9596 155.315C65.7931 156.641 61.4752 159.474 61.5363 160.195C61.5975 160.915 59.4207 163.498 58.3247 164.699C57.4071 165.4 55.4189 166.832 54.8072 166.952C54.1954 167.072 53.5327 168.253 53.2778 168.829C53.2778 169.605 53.1096 171.336 52.4367 172.057C52.2073 170.556 52.8955 168.303 53.2778 167.552C53.5837 166.952 55.6993 164.95 56.7189 164.024C57.662 163.023 59.487 160.855 59.2423 160.195C56.8718 159.369 54.4248 160.345 52.8955 160.195C51.3661 160.045 50.7544 162.522 50.525 162.297C50.3414 162.117 50.0407 165.525 49.9132 167.252C49.5564 167.903 48.705 169.129 48.1545 168.829C49.3015 168.378 49.378 167.928 49.5309 164.699C49.6532 162.117 50.8563 160.42 51.4426 159.894C52.3602 159.419 54.7001 158.483 56.7189 158.543C59.2423 158.618 58.5541 158.393 60.4658 157.792C61.9952 157.312 64.3147 155.039 65.2833 153.963C64.0343 153.638 60.7411 153.137 57.56 153.738C54.9907 153.017 51.3916 156.14 49.9132 157.792C48.5623 159.219 45.6922 162.462 45.0193 164.024C43.2605 164.925 42.037 170.105 42.037 172.282C42.037 174.46 39.5901 176.262 39.1313 175.661C38.6725 175.06 35.6137 177.238 34.8491 177.388C34.2373 177.508 32.9629 179.69 32.4021 180.766C32.4021 179.765 32.8915 177.523 34.8491 176.562C37.296 175.361 40.0489 173.709 40.5077 172.808C40.8747 172.087 40.6606 169.504 40.5077 168.303C38.1882 169.454 33.3197 171.547 32.4021 170.706C31.4845 169.865 27.2278 172.758 25.2141 174.31C24.1436 175.511 21.9413 177.703 21.6966 176.862C25.2141 172.357 30.6433 169.204 35.0785 168.528C39.5136 167.853 42.8017 163.498 42.8017 162.522C42.1288 162.702 38.6979 162.297 37.0666 162.072C35.8686 161.947 33.1974 161.816 32.0962 162.297C31.0257 161.696 27.8905 164.249 26.667 164.85C28.3187 162.507 32.1472 161.321 33.855 161.021C35.8431 161.171 40.2477 161.381 41.9606 161.021C44.1017 160.57 45.4016 158.693 46.778 156.291C47.8792 154.369 49.8877 152.737 50.7544 152.161C51.0348 152.086 52.0696 151.621 53.966 150.359C49.4544 147.882 42.7253 152.612 40.6606 154.188C39.0089 155.45 34.7216 156.816 32.7844 157.342C30.2865 157.617 25.2906 158.002 25.2906 157.342C26.0553 157.492 29.0375 157.492 32.3256 156.591C34.9561 155.87 37.1431 153.638 37.9078 152.612C36.8882 152.912 33.6867 152.792 29.0375 149.909Z" fill="#457537"/>
</g>
<defs>
<filter id="filter0_d_312_436" x="0.338379" y="0.80127" width="173.324" height="202.531" filterUnits="userSpaceOnUse" color-interpolation-filters="sRGB">
<feFlood flood-opacity="0" result="BackgroundImageFix"/>
<feColorMatrix in="SourceAlpha" type="matrix" values="0 0 0 0 0 0 0 0 0 0 0 0 0 0 0 0 0 0 127 0" result="hardAlpha"/>
<feOffset dy="4"/>
<feGaussianBlur stdDeviation="2"/>
<feComposite in2="hardAlpha" operator="out"/>
<feColorMatrix type="matrix" values="0 0 0 0 0.270588 0 0 0 0 0.458824 0 0 0 0 0.215686 0 0 0 1 0"/>
<feBlend mode="normal" in2="BackgroundImageFix" result="effect1_dropShadow_312_436"/>
<feBlend mode="normal" in="SourceGraphic" in2="effect1_dropShadow_312_436" result="shape"/>
</filter>
</defs>
</svg>
